<svg xmlns="http://www.w3.org/2000/svg" xmlns:xlink="http://www.w3.org/1999/xlink" width="2000" zoomAndPan="magnify" viewBox="0 0 1500 1499.999933" height="2000" preserveAspectRatio="xMidYMid meet" version="1.0"><path fill="#000000" d="M 739.355469 160.511719 C 319.394531 151.589844 20.570312 618.230469 204.179688 995.59375 C 204.171875 995.585938 87.585938 1349.332031 87.585938 1349.332031 C 76.289062 1380.226562 109.042969 1413.074219 139.910156 1401.660156 C 139.910156 1401.660156 493.636719 1285.109375 493.636719 1285.109375 C 571.539062 1321.066406 654.089844 1339.277344 739.355469 1339.277344 C 1520.945312 1307.042969 1521.171875 192.84375 739.355469 160.511719 Z M 739.355469 1256.394531 C 661.292969 1256.394531 585.78125 1238.566406 514.921875 1203.398438 C 505.128906 1198.582031 493.878906 1197.773438 483.5625 1201.171875 L 192.03125 1297.226562 L 288.101562 1005.703125 C 291.5 995.363281 290.691406 984.074219 285.835938 974.320312 C 250.710938 903.4375 232.863281 827.917969 232.863281 749.894531 C 232.863281 470.613281 460.089844 243.394531 739.355469 243.394531 C 1411.171875 271.195312 1411.105469 1228.640625 739.355469 1256.394531 Z M 739.355469 1256.394531 " fill-opacity="1" fill-rule="nonzero"/><path fill="#000000" d="M 952.296875 712.316406 L 776.910156 712.316406 L 776.910156 536.941406 C 776.910156 514.054688 758.375 495.5 735.472656 495.5 C 712.566406 495.5 694.03125 514.054688 694.03125 536.941406 L 694.03125 712.316406 L 518.644531 712.316406 C 495.742188 712.316406 477.207031 730.875 477.207031 753.757812 C 477.207031 776.644531 495.742188 795.199219 518.644531 795.199219 L 694.03125 795.199219 L 694.03125 970.597656 C 694.03125 993.480469 712.566406 1012.039062 735.472656 1012.039062 C 758.375 1012.039062 776.910156 993.480469 776.910156 970.597656 L 776.910156 795.199219 L 952.296875 795.199219 C 975.203125 795.199219 993.734375 776.644531 993.734375 753.757812 C 993.734375 730.875 975.203125 712.316406 952.296875 712.316406 Z M 952.296875 712.316406 " fill-opacity="1" fill-rule="nonzero"/></svg>