<svg xmlns="http://www.w3.org/2000/svg" xmlns:xlink="http://www.w3.org/1999/xlink" width="2000" zoomAndPan="magnify" viewBox="0 0 1500 1499.999933" height="2000" preserveAspectRatio="xMidYMid meet" version="1.0"><defs><clipPath id="1771c98e8a"><path d="M 130.621094 131 L 1369.621094 131 L 1369.621094 1369 L 130.621094 1369 Z M 130.621094 131 " clip-rule="nonzero"/></clipPath></defs><g clip-path="url(#1771c98e8a)"><path fill="#000000" d="M 130.566406 194.285156 C 130.601562 196.308594 130.730469 198.328125 130.960938 200.335938 C 131.1875 202.347656 131.515625 204.34375 131.941406 206.320312 C 132.367188 208.300781 132.886719 210.253906 133.503906 212.179688 C 134.121094 214.105469 134.832031 216 135.632812 217.855469 C 136.4375 219.714844 137.328125 221.527344 138.308594 223.296875 C 139.289062 225.066406 140.355469 226.785156 141.503906 228.453125 C 142.652344 230.117188 143.882812 231.722656 145.1875 233.269531 C 146.496094 234.8125 147.875 236.289062 149.324219 237.699219 C 150.777344 239.109375 152.292969 240.445312 153.878906 241.707031 C 155.460938 242.964844 157.101562 244.148438 158.800781 245.246094 C 160.496094 246.347656 162.246094 247.359375 164.042969 248.289062 C 165.84375 249.21875 167.679688 250.054688 169.5625 250.804688 C 171.441406 251.550781 173.355469 252.203125 175.300781 252.765625 C 177.242188 253.324219 179.210938 253.789062 181.199219 254.15625 C 183.191406 254.523438 185.195312 254.792969 187.210938 254.960938 C 189.226562 255.132812 191.246094 255.203125 193.269531 255.175781 L 749.972656 255.175781 C 853.179688 255.175781 935.542969 337.539062 935.542969 440.746094 L 935.542969 1157.402344 L 731.851562 953.714844 C 730.773438 952.605469 729.65625 951.539062 728.496094 950.511719 C 727.335938 949.484375 726.140625 948.503906 724.910156 947.570312 C 723.679688 946.632812 722.414062 945.746094 721.113281 944.90625 C 719.816406 944.0625 718.488281 943.273438 717.128906 942.53125 C 715.769531 941.789062 714.386719 941.101562 712.976562 940.464844 C 711.566406 939.824219 710.136719 939.242188 708.683594 938.710938 C 707.230469 938.183594 705.757812 937.707031 704.269531 937.289062 C 702.777344 936.867188 701.277344 936.503906 699.757812 936.199219 C 698.242188 935.890625 696.71875 935.640625 695.183594 935.449219 C 693.648438 935.257812 692.105469 935.125 690.5625 935.046875 C 689.015625 934.96875 687.46875 934.949219 685.921875 934.992188 C 684.375 935.03125 682.832031 935.125 681.292969 935.28125 C 679.753906 935.4375 678.222656 935.648438 676.699219 935.917969 C 675.175781 936.1875 673.664062 936.515625 672.167969 936.898438 C 670.667969 937.28125 669.183594 937.722656 667.71875 938.214844 C 666.253906 938.710938 664.808594 939.257812 663.382812 939.863281 C 661.957031 940.464844 660.558594 941.121094 659.183594 941.828125 C 657.804688 942.535156 656.457031 943.296875 655.140625 944.105469 C 653.820312 944.914062 652.535156 945.769531 651.28125 946.675781 C 650.027344 947.582031 648.808594 948.535156 647.625 949.53125 C 646.441406 950.527344 645.296875 951.566406 644.191406 952.652344 C 643.085938 953.734375 642.023438 954.855469 641.003906 956.019531 C 639.984375 957.183594 639.007812 958.382812 638.078125 959.617188 C 637.144531 960.855469 636.261719 962.121094 635.425781 963.425781 C 634.589844 964.726562 633.804688 966.058594 633.070312 967.417969 C 632.335938 968.78125 631.652344 970.167969 631.019531 971.578125 C 630.386719 972.992188 629.808594 974.425781 629.285156 975.882812 C 628.761719 977.339844 628.292969 978.8125 627.878906 980.300781 C 627.464844 981.792969 627.109375 983.296875 626.808594 984.816406 C 626.507812 986.332031 626.265625 987.859375 626.078125 989.394531 C 625.894531 990.933594 625.765625 992.472656 625.695312 994.019531 C 625.625 995.5625 625.613281 997.109375 625.65625 998.65625 C 625.777344 1002.636719 626.273438 1006.566406 627.152344 1010.453125 C 628.03125 1014.335938 629.269531 1018.101562 630.875 1021.746094 C 632.480469 1025.386719 634.417969 1028.84375 636.691406 1032.117188 C 638.964844 1035.386719 641.527344 1038.40625 644.382812 1041.183594 L 953.664062 1350.460938 C 955.097656 1351.894531 956.59375 1353.253906 958.160156 1354.539062 C 959.726562 1355.820312 961.351562 1357.027344 963.035156 1358.152344 C 964.722656 1359.277344 966.457031 1360.316406 968.242188 1361.269531 C 970.03125 1362.226562 971.859375 1363.089844 973.730469 1363.867188 C 975.601562 1364.640625 977.507812 1365.320312 979.445312 1365.910156 C 981.382812 1366.496094 983.34375 1366.988281 985.332031 1367.382812 C 987.320312 1367.777344 989.320312 1368.074219 991.335938 1368.273438 C 993.351562 1368.472656 995.371094 1368.570312 997.398438 1368.570312 C 999.421875 1368.570312 1001.445312 1368.472656 1003.460938 1368.273438 C 1005.476562 1368.074219 1007.476562 1367.777344 1009.460938 1367.382812 C 1011.449219 1366.988281 1013.410156 1366.496094 1015.351562 1365.910156 C 1017.289062 1365.320312 1019.195312 1364.640625 1021.066406 1363.867188 C 1022.9375 1363.089844 1024.765625 1362.226562 1026.550781 1361.269531 C 1028.339844 1360.316406 1030.074219 1359.277344 1031.757812 1358.152344 C 1033.441406 1357.027344 1035.066406 1355.820312 1036.632812 1354.539062 C 1038.199219 1353.253906 1039.699219 1351.894531 1041.132812 1350.460938 L 1350.410156 1041.183594 C 1351.152344 1040.472656 1351.871094 1039.742188 1352.578125 1038.996094 C 1353.28125 1038.25 1353.964844 1037.488281 1354.628906 1036.707031 C 1355.296875 1035.929688 1355.941406 1035.132812 1356.566406 1034.320312 C 1357.191406 1033.507812 1357.796875 1032.679688 1358.382812 1031.835938 C 1358.96875 1030.996094 1359.53125 1030.136719 1360.074219 1029.269531 C 1360.617188 1028.398438 1361.136719 1027.515625 1361.636719 1026.617188 C 1362.132812 1025.722656 1362.609375 1024.8125 1363.0625 1023.894531 C 1363.515625 1022.972656 1363.945312 1022.042969 1364.351562 1021.101562 C 1364.757812 1020.160156 1365.140625 1019.207031 1365.5 1018.25 C 1365.863281 1017.289062 1366.195312 1016.320312 1366.507812 1015.34375 C 1366.820312 1014.363281 1367.105469 1013.378906 1367.367188 1012.390625 C 1367.632812 1011.398438 1367.867188 1010.402344 1368.082031 1009.398438 C 1368.292969 1008.394531 1368.480469 1007.386719 1368.644531 1006.375 C 1368.808594 1005.363281 1368.945312 1004.34375 1369.058594 1003.324219 C 1369.167969 1002.308594 1369.257812 1001.285156 1369.316406 1000.261719 C 1369.378906 999.238281 1369.414062 998.214844 1369.425781 997.1875 C 1369.4375 996.164062 1369.421875 995.136719 1369.378906 994.113281 C 1369.339844 993.085938 1369.273438 992.066406 1369.183594 991.042969 C 1369.089844 990.023438 1368.972656 989.003906 1368.832031 987.988281 C 1368.691406 986.972656 1368.523438 985.960938 1368.332031 984.953125 C 1368.136719 983.945312 1367.921875 982.945312 1367.679688 981.949219 C 1367.4375 980.949219 1367.167969 979.960938 1366.878906 978.976562 C 1366.585938 977.996094 1366.269531 977.019531 1365.929688 976.050781 C 1365.589844 975.085938 1365.226562 974.125 1364.839844 973.175781 C 1364.453125 972.226562 1364.039062 971.289062 1363.605469 970.359375 C 1363.171875 969.429688 1362.714844 968.511719 1362.234375 967.605469 C 1361.753906 966.699219 1361.253906 965.804688 1360.726562 964.925781 C 1360.203125 964.042969 1359.65625 963.175781 1359.089844 962.320312 C 1358.523438 961.46875 1357.933594 960.628906 1357.324219 959.800781 C 1356.714844 958.976562 1356.085938 958.167969 1355.4375 957.375 C 1354.785156 956.582031 1354.117188 955.804688 1353.429688 955.042969 C 1352.742188 954.285156 1352.035156 953.542969 1351.308594 952.816406 C 1350.585938 952.089844 1349.84375 951.382812 1349.082031 950.695312 C 1348.320312 950.007812 1347.542969 949.339844 1346.75 948.6875 C 1345.957031 948.039062 1345.148438 947.410156 1344.324219 946.800781 C 1343.5 946.191406 1342.660156 945.601562 1341.804688 945.035156 C 1340.949219 944.46875 1340.082031 943.921875 1339.203125 943.398438 C 1338.320312 942.871094 1337.425781 942.371094 1336.519531 941.890625 C 1335.613281 941.410156 1334.695312 940.953125 1333.765625 940.519531 C 1332.839844 940.085938 1331.898438 939.675781 1330.949219 939.285156 C 1330 938.898438 1329.042969 938.535156 1328.074219 938.195312 C 1327.105469 937.855469 1326.128906 937.539062 1325.148438 937.246094 C 1324.164062 936.957031 1323.175781 936.691406 1322.179688 936.445312 C 1321.183594 936.203125 1320.179688 935.988281 1319.171875 935.796875 C 1318.164062 935.601562 1317.152344 935.4375 1316.136719 935.292969 C 1315.121094 935.152344 1314.105469 935.035156 1313.082031 934.941406 C 1312.0625 934.851562 1311.039062 934.785156 1310.011719 934.746094 C 1308.988281 934.703125 1307.964844 934.691406 1306.9375 934.699219 C 1305.914062 934.710938 1304.886719 934.746094 1303.863281 934.808594 C 1302.839844 934.867188 1301.820312 934.957031 1300.800781 935.066406 C 1299.78125 935.179688 1298.765625 935.316406 1297.75 935.480469 C 1296.738281 935.644531 1295.730469 935.832031 1294.726562 936.042969 C 1293.726562 936.257812 1292.726562 936.496094 1291.734375 936.757812 C 1290.746094 937.019531 1289.761719 937.304688 1288.785156 937.617188 C 1287.804688 937.929688 1286.835938 938.265625 1285.878906 938.625 C 1284.917969 938.984375 1283.964844 939.367188 1283.023438 939.773438 C 1282.082031 940.179688 1281.152344 940.609375 1280.230469 941.0625 C 1279.3125 941.515625 1278.402344 941.992188 1277.507812 942.492188 C 1276.613281 942.988281 1275.726562 943.507812 1274.859375 944.050781 C 1273.988281 944.59375 1273.128906 945.15625 1272.289062 945.742188 C 1271.445312 946.328125 1270.617188 946.933594 1269.804688 947.558594 C 1268.992188 948.183594 1268.199219 948.828125 1267.417969 949.496094 C 1266.636719 950.160156 1265.875 950.84375 1265.128906 951.550781 C 1264.382812 952.253906 1263.652344 952.972656 1262.941406 953.714844 L 1059.253906 1157.402344 L 1059.253906 440.746094 C 1059.253906 270.671875 920.046875 131.464844 749.972656 131.464844 L 193.269531 131.464844 C 192.238281 131.449219 191.207031 131.460938 190.175781 131.5 C 189.144531 131.535156 188.117188 131.601562 187.089844 131.6875 C 186.0625 131.777344 185.039062 131.890625 184.015625 132.03125 C 182.996094 132.171875 181.976562 132.339844 180.964844 132.53125 C 179.949219 132.71875 178.941406 132.9375 177.9375 133.179688 C 176.9375 133.417969 175.941406 133.6875 174.949219 133.976562 C 173.960938 134.269531 172.980469 134.585938 172.007812 134.925781 C 171.03125 135.265625 170.070312 135.628906 169.113281 136.019531 C 168.15625 136.40625 167.214844 136.820312 166.277344 137.253906 C 165.34375 137.691406 164.421875 138.148438 163.507812 138.632812 C 162.597656 139.113281 161.699219 139.617188 160.8125 140.144531 C 159.925781 140.671875 159.050781 141.222656 158.191406 141.792969 C 157.335938 142.363281 156.488281 142.953125 155.660156 143.566406 C 154.832031 144.179688 154.015625 144.8125 153.21875 145.464844 C 152.421875 146.121094 151.640625 146.792969 150.875 147.484375 C 150.113281 148.179688 149.367188 148.890625 148.636719 149.621094 C 147.910156 150.351562 147.199219 151.097656 146.507812 151.863281 C 145.816406 152.628906 145.144531 153.410156 144.492188 154.210938 C 143.839844 155.007812 143.210938 155.824219 142.597656 156.652344 C 141.988281 157.484375 141.398438 158.332031 140.828125 159.191406 C 140.257812 160.050781 139.710938 160.925781 139.1875 161.8125 C 138.660156 162.699219 138.160156 163.597656 137.679688 164.511719 C 137.199219 165.425781 136.742188 166.347656 136.304688 167.285156 C 135.871094 168.21875 135.460938 169.164062 135.074219 170.121094 C 134.6875 171.078125 134.324219 172.042969 133.988281 173.015625 C 133.648438 173.992188 133.335938 174.972656 133.046875 175.964844 C 132.757812 176.953125 132.492188 177.949219 132.253906 178.953125 C 132.011719 179.957031 131.796875 180.964844 131.609375 181.976562 C 131.421875 182.992188 131.257812 184.011719 131.117188 185.03125 C 130.980469 186.054688 130.867188 187.078125 130.78125 188.105469 C 130.695312 189.132812 130.632812 190.164062 130.597656 191.195312 C 130.5625 192.226562 130.550781 193.253906 130.566406 194.285156 Z M 130.566406 194.285156 " fill-opacity="1" fill-rule="nonzero"/></g></svg>