<svg xmlns="http://www.w3.org/2000/svg" viewBox="0 0 24 24" fill="none" stroke="currentColor" stroke-width="1.5" stroke-linecap="round" stroke-linejoin="round">
  <path d="M12 2C9.5 2 7.5 4 7.5 6.5c0 .5.1 1 .2 1.5C6.1 8.5 5 10 5 11.5c0 1.5.8 2.8 2 3.5-.1.3-.2.7-.2 1 0 1.7 1.3 3 3 3 .5 0 1-.1 1.4-.3.5.8 1.4 1.3 2.4 1.3s1.9-.5 2.4-1.3c.4.2.9.3 1.4.3 1.7 0 3-1.3 3-3 0-.4-.1-.7-.2-1 1.2-.7 2-2 2-3.5 0-1.5-1.1-3-2.7-3.5.1-.5.2-1 .2-1.5C16.5 4 14.5 2 12 2z"/>
  <path d="M12 2v20"/>
  <path d="M8 8.5c1.5 0 2.5 1 4 1"/>
  <path d="M16 8.5c-1.5 0-2.5 1-4 1"/>
  <path d="M8 13c1.5 0 2.5 1 4 1"/>
  <path d="M16 13c-1.5 0-2.5 1-4 1"/>
</svg>
