<svg xmlns="http://www.w3.org/2000/svg" xmlns:xlink="http://www.w3.org/1999/xlink" width="2000" zoomAndPan="magnify" viewBox="0 0 1500 1499.999933" height="2000" preserveAspectRatio="xMidYMid meet" version="1.0"><path fill="#000000" d="M 274.960938 515.992188 C 270.28125 514.820312 265.601562 515.992188 262.089844 518.332031 C 253.898438 521.839844 248.050781 530.03125 248.050781 539.390625 C 248.050781 700.859375 379.09375 831.902344 540.5625 831.902344 C 590.875 831.902344 638.84375 819.03125 679.796875 796.800781 C 671.605469 783.929688 664.585938 769.890625 657.566406 755.851562 C 622.464844 774.570312 582.683594 785.101562 540.5625 785.101562 C 420.046875 785.101562 320.59375 698.519531 299.53125 585.023438 C 332.292969 601.402344 381.433594 620.125 443.449219 617.785156 C 480.890625 616.613281 521.839844 609.59375 566.300781 589.703125 C 582.683594 582.683594 597.894531 576.832031 611.933594 572.152344 C 610.765625 555.773438 610.765625 539.390625 611.933594 523.011719 C 592.042969 528.859375 570.984375 537.050781 547.582031 546.410156 C 504.289062 565.132812 465.679688 570.984375 431.746094 569.8125 C 345.164062 568.644531 290.171875 523.011719 286.660156 520.671875 C 283.152344 518.332031 279.640625 517.160156 274.960938 515.992188 Z M 274.960938 515.992188 " fill-opacity="1" fill-rule="nonzero"/><path fill="#000000" d="M 741.808594 876.363281 C 735.960938 870.515625 730.109375 864.664062 724.257812 857.644531 C 720.75 854.132812 718.410156 850.625 714.898438 847.113281 C 714.898438 847.113281 713.730469 845.945312 713.730469 845.945312 C 675.117188 868.175781 631.824219 883.386719 586.195312 889.234375 L 586.195312 907.957031 C 586.195312 921.996094 576.832031 932.527344 565.132812 937.207031 C 561.621094 938.378906 559.28125 938.378906 555.773438 938.378906 L 525.351562 938.378906 C 521.839844 938.378906 517.160156 937.207031 513.652344 936.039062 C 501.949219 931.355469 493.761719 920.828125 493.761719 907.957031 L 493.761719 889.234375 C 453.976562 884.554688 417.707031 872.855469 382.605469 855.304688 C 362.714844 844.773438 342.824219 833.074219 325.273438 819.03125 L 313.574219 831.902344 C 311.234375 834.242188 307.722656 836.582031 304.210938 837.753906 C 300.703125 840.09375 296.023438 840.09375 291.339844 840.09375 C 289 840.09375 286.660156 840.09375 284.320312 838.921875 C 279.640625 837.753906 273.789062 835.414062 270.28125 830.734375 L 248.050781 809.671875 C 236.347656 797.972656 236.347656 778.082031 248.050781 766.378906 L 260.921875 753.511719 C 246.878906 735.960938 235.179688 716.070312 224.648438 696.179688 C 208.269531 662.246094 196.566406 624.804688 190.71875 585.023438 L 171.996094 585.023438 C 159.125 585.023438 148.597656 578.003906 143.914062 566.300781 C 143.914062 562.792969 142.746094 559.28125 142.746094 554.601562 L 142.746094 524.179688 C 142.746094 519.5 143.914062 515.992188 145.085938 512.480469 C 149.765625 501.949219 160.296875 493.757812 173.167969 493.757812 L 191.886719 493.757812 C 196.566406 453.976562 208.269531 417.707031 225.820312 382.605469 C 236.347656 362.714844 248.050781 342.824219 262.089844 325.273438 L 248.050781 312.402344 C 236.347656 300.703125 236.347656 280.8125 248.050781 269.109375 L 269.109375 248.050781 C 272.621094 244.539062 278.472656 241.03125 283.152344 239.859375 C 285.492188 238.691406 287.832031 238.691406 290.171875 238.691406 C 294.851562 238.691406 298.363281 239.859375 303.042969 241.03125 C 306.550781 242.199219 308.890625 244.539062 312.402344 246.878906 L 325.273438 259.75 C 342.824219 245.710938 362.714844 234.007812 382.605469 223.480469 C 416.535156 205.929688 453.976562 194.226562 493.757812 189.546875 L 493.757812 170.828125 C 493.757812 157.957031 501.949219 147.425781 512.480469 142.746094 C 515.992188 141.574219 520.671875 140.40625 524.179688 140.40625 L 554.601562 140.40625 C 558.113281 140.40625 561.621094 141.574219 565.132812 142.746094 C 576.832031 147.425781 586.195312 157.957031 586.195312 171.996094 L 586.195312 190.71875 C 593.214844 191.886719 599.0625 193.058594 606.085938 194.226562 C 611.933594 195.398438 618.953125 196.566406 624.804688 197.738281 C 630.65625 198.90625 636.503906 201.246094 643.527344 202.417969 C 649.375 204.757812 655.226562 205.929688 661.078125 208.269531 C 666.925781 210.609375 672.777344 212.949219 678.628906 215.289062 C 682.136719 216.457031 684.476562 217.628906 687.988281 219.96875 C 702.027344 226.988281 716.070312 234.007812 728.9375 242.199219 C 737.128906 234.007812 744.148438 225.820312 752.339844 217.628906 C 752.339844 217.628906 752.339844 217.628906 753.511719 216.457031 C 761.699219 208.269531 771.0625 200.078125 780.421875 193.058594 C 812.011719 166.148438 848.285156 143.914062 885.726562 126.363281 C 878.703125 119.34375 874.023438 114.664062 871.683594 115.835938 C 780.421875 43.292969 665.757812 1.171875 540.5625 1.171875 C 527.691406 1.171875 514.820312 1.171875 503.121094 2.339844 C 230.5 21.0625 10.53125 246.878906 2.339844 518.332031 C 0 600.234375 16.378906 679.796875 50.3125 754.679688 C 72.542969 812.011719 105.304688 862.324219 136.894531 911.464844 C 170.828125 964.117188 202.417969 1013.261719 221.140625 1067.082031 C 237.519531 1116.222656 248.050781 1187.597656 248.050781 1254.289062 C 248.050781 1256.628906 248.050781 1258.96875 248.050781 1262.480469 C 248.050781 1288.222656 269.109375 1309.28125 294.851562 1309.28125 L 786.269531 1309.28125 C 812.011719 1309.28125 833.074219 1288.222656 833.074219 1262.480469 C 833.074219 1258.96875 833.074219 1256.628906 831.902344 1254.289062 C 830.734375 1221.527344 831.902344 1195.789062 831.902344 1173.558594 C 831.902344 1167.707031 831.902344 1161.855469 831.902344 1157.175781 C 831.902344 1116.222656 856.472656 1053.042969 890.40625 987.519531 C 891.574219 986.347656 892.746094 984.007812 893.914062 982.839844 C 836.582031 958.269531 786.273438 923.167969 742.980469 878.703125 C 742.980469 877.535156 741.808594 876.363281 741.808594 876.363281 Z M 645.867188 1171.214844 L 435.257812 1171.214844 C 422.386719 1171.214844 411.855469 1160.6875 411.855469 1147.816406 C 411.855469 1134.945312 422.386719 1124.414062 435.257812 1124.414062 L 645.867188 1124.414062 C 658.734375 1124.414062 669.265625 1134.945312 669.265625 1147.816406 C 669.265625 1160.6875 658.734375 1171.214844 645.867188 1171.214844 Z M 657.566406 1077.613281 L 423.558594 1077.613281 C 410.6875 1077.613281 400.15625 1067.082031 400.15625 1054.210938 C 400.15625 1041.339844 410.6875 1030.8125 423.558594 1030.8125 L 657.566406 1030.8125 C 670.4375 1030.8125 680.96875 1041.339844 680.96875 1054.210938 C 680.96875 1067.082031 670.4375 1077.613281 657.566406 1077.613281 Z M 657.566406 1077.613281 " fill-opacity="1" fill-rule="nonzero"/><path fill="#000000" d="M 704.367188 1452.027344 L 376.753906 1452.027344 C 363.882812 1452.027344 353.355469 1462.558594 353.355469 1475.429688 C 353.355469 1488.300781 363.882812 1498.828125 376.753906 1498.828125 L 704.367188 1498.828125 C 717.238281 1498.828125 727.769531 1488.300781 727.769531 1475.429688 C 727.769531 1462.558594 717.238281 1452.027344 704.367188 1452.027344 Z M 704.367188 1452.027344 " fill-opacity="1" fill-rule="nonzero"/><path fill="#000000" d="M 751.171875 1358.425781 L 329.953125 1358.425781 C 317.082031 1358.425781 306.550781 1368.953125 306.550781 1381.824219 C 306.550781 1394.695312 317.082031 1405.226562 329.953125 1405.226562 L 751.171875 1405.226562 C 764.039062 1405.226562 774.570312 1394.695312 774.570312 1381.824219 C 774.570312 1368.953125 764.039062 1358.425781 751.171875 1358.425781 Z M 751.171875 1358.425781 " fill-opacity="1" fill-rule="nonzero"/><path fill="#000000" d="M 1078.78125 129.875 C 1069.421875 129.875 1058.890625 129.875 1049.53125 131.046875 C 847.113281 145.085938 679.796875 307.722656 659.90625 510.140625 C 649.375 621.292969 680.96875 730.109375 751.171875 816.691406 C 810.84375 890.40625 892.746094 941.886719 985.179688 961.777344 L 985.179688 1405.226562 C 985.179688 1456.707031 1027.300781 1498.828125 1078.78125 1498.828125 C 1130.265625 1498.828125 1172.386719 1456.707031 1172.386719 1405.226562 L 1172.386719 961.777344 C 1361.933594 918.488281 1500 748.828125 1500 551.09375 C 1500 318.253906 1310.453125 129.875 1078.78125 129.875 Z M 1125.585938 921.996094 L 1125.585938 1405.226562 C 1125.585938 1430.96875 1104.523438 1452.027344 1078.78125 1452.027344 C 1053.042969 1452.027344 1031.980469 1430.96875 1031.980469 1405.226562 L 1031.980469 921.996094 C 835.414062 897.425781 685.648438 720.75 706.707031 513.652344 C 724.257812 333.464844 871.683594 189.546875 1053.042969 177.847656 C 1062.402344 177.847656 1070.59375 176.675781 1079.953125 176.675781 C 1287.050781 176.675781 1454.367188 343.992188 1454.367188 551.09375 C 1453.199219 741.808594 1310.453125 899.765625 1125.585938 921.996094 Z M 1125.585938 921.996094 " fill-opacity="1" fill-rule="nonzero"/><path fill="#000000" d="M 1078.78125 223.480469 C 898.597656 223.480469 751.171875 370.90625 751.171875 551.09375 C 751.171875 731.277344 898.597656 878.703125 1078.78125 878.703125 C 1258.96875 878.703125 1406.394531 731.277344 1406.394531 551.09375 C 1406.394531 370.90625 1258.96875 223.480469 1078.78125 223.480469 Z M 1078.78125 831.902344 C 923.167969 831.902344 797.972656 705.539062 797.972656 551.09375 C 797.972656 396.644531 924.335938 270.28125 1078.78125 270.28125 C 1234.398438 270.28125 1359.59375 396.644531 1359.59375 551.09375 C 1359.59375 705.539062 1234.398438 831.902344 1078.78125 831.902344 Z M 1078.78125 831.902344 " fill-opacity="1" fill-rule="nonzero"/><path fill="#000000" d="M 517.160156 434.085938 C 517.160156 382.605469 475.039062 340.484375 423.558594 340.484375 C 372.074219 340.484375 329.953125 382.605469 329.953125 434.085938 C 329.953125 485.570312 372.074219 527.691406 423.558594 527.691406 C 475.039062 527.691406 517.160156 485.570312 517.160156 434.085938 Z M 517.160156 434.085938 " fill-opacity="1" fill-rule="nonzero"/><path fill="#000000" d="M 587.363281 246.878906 C 548.75 246.878906 517.160156 278.472656 517.160156 317.082031 C 517.160156 355.695312 548.75 387.285156 587.363281 387.285156 C 625.976562 387.285156 657.566406 355.695312 657.566406 317.082031 C 657.566406 278.472656 625.976562 246.878906 587.363281 246.878906 Z M 587.363281 246.878906 " fill-opacity="1" fill-rule="nonzero"/><path fill="#000000" d="M 1034.320312 321.761719 C 986.347656 331.125 943.058594 355.695312 910.296875 389.625 C 909.125 390.796875 909.125 390.796875 907.957031 391.964844 C 905.617188 394.304688 904.445312 395.476562 903.277344 397.816406 C 902.105469 398.984375 900.9375 400.15625 899.765625 402.496094 C 898.597656 404.835938 896.253906 406.007812 895.085938 408.347656 C 893.914062 409.515625 892.746094 410.6875 891.574219 413.027344 C 890.40625 415.367188 888.066406 417.707031 886.894531 420.046875 C 885.726562 421.214844 885.726562 422.386719 884.554688 423.558594 C 882.214844 427.066406 879.875 430.578125 877.535156 435.257812 C 883.386719 453.976562 888.066406 473.867188 890.40625 493.757812 L 909.125 493.757812 C 923.167969 493.757812 934.867188 503.121094 938.378906 515.992188 C 938.378906 517.160156 938.378906 517.160156 938.378906 518.332031 C 938.378906 519.5 938.378906 520.671875 938.378906 520.671875 C 938.378906 521.839844 938.378906 523.011719 938.378906 524.179688 L 938.378906 554.601562 C 938.378906 555.773438 938.378906 556.941406 938.378906 558.113281 C 938.378906 559.28125 938.378906 560.453125 938.378906 560.453125 C 938.378906 561.621094 938.378906 561.621094 937.207031 562.792969 C 933.695312 575.664062 921.996094 585.023438 907.957031 585.023438 L 889.234375 585.023438 C 885.726562 610.765625 879.875 635.335938 871.683594 658.734375 C 875.195312 664.585938 878.703125 670.4375 882.214844 676.285156 C 883.386719 677.457031 883.386719 678.628906 884.554688 679.796875 C 888.066406 685.648438 891.574219 690.328125 896.253906 695.007812 C 897.425781 696.179688 898.597656 698.519531 900.9375 699.6875 C 902.105469 700.859375 903.277344 702.027344 904.445312 703.199219 C 933.695312 737.128906 973.480469 761.699219 1016.769531 774.570312 C 1054.210938 705.539062 1075.273438 631.824219 1078.78125 558.113281 C 1078.78125 548.75 1079.953125 540.5625 1079.953125 531.203125 C 1078.78125 458.660156 1062.402344 386.117188 1034.320312 321.761719 Z M 1034.320312 321.761719 " fill-opacity="1" fill-rule="nonzero"/></svg>