<svg xmlns="http://www.w3.org/2000/svg" xmlns:xlink="http://www.w3.org/1999/xlink" width="1366" zoomAndPan="magnify" viewBox="0 0 1024.5 576" height="768" preserveAspectRatio="xMidYMid meet" version="1.0"><defs><clipPath id="47c4e9ffac"><path d="M 111.1875 110 L 429 110 L 429 572 L 111.1875 572 Z M 111.1875 110 " clip-rule="nonzero"/></clipPath><clipPath id="67339139a3"><path d="M 595 110 L 912.546875 110 L 912.546875 572 L 595 572 Z M 595 110 " clip-rule="nonzero"/></clipPath></defs><path fill="#ffffff" d="M 214.523438 477.386719 C 238.332031 478.8125 282.648438 483.296875 332.96875 497.167969 C 383.300781 511.027344 439.578125 534.28125 487.535156 572.914062 C 490.214844 575.074219 493.878906 575.5 496.980469 574.011719 C 500.085938 572.527344 502.046875 569.410156 502.046875 565.96875 L 502.046875 99.339844 C 502.046875 96.539062 500.734375 93.90625 498.5 92.21875 C 485.542969 82.453125 454.476562 61.175781 406.769531 41.6875 C 359.066406 22.203125 294.703125 4.527344 215.339844 2.042969 C 212.925781 1.96875 210.585938 2.871094 208.855469 4.550781 C 207.117188 6.234375 206.140625 8.539062 206.140625 10.957031 L 206.140625 468.480469 C 206.140625 473.191406 209.824219 477.101562 214.527344 477.386719 Z M 484.210938 103.839844 L 484.210938 548.003906 C 437.167969 513.929688 384.753906 492.941406 337.707031 479.972656 C 291.164062 467.148438 249.84375 462.132812 223.976562 460.15625 L 223.976562 20.273438 C 296.742188 23.707031 355.867188 40.171875 400.023438 58.199219 C 442.007812 75.347656 470.472656 93.878906 484.210938 103.839844 Z M 484.210938 103.839844 " fill-opacity="1" fill-rule="nonzero"/><path fill="#ffffff" d="M 527.007812 573.988281 C 530.113281 575.476562 533.773438 575.046875 536.453125 572.890625 C 584.410156 534.257812 640.683594 511.011719 691.019531 497.15625 C 741.339844 483.289062 785.65625 478.8125 809.464844 477.386719 C 814.164062 477.105469 817.847656 473.195312 817.847656 468.484375 L 817.847656 10.957031 C 817.847656 8.539062 816.871094 6.234375 815.136719 4.554688 C 813.402344 2.871094 811.070312 1.96875 808.652344 2.042969 C 728.949219 4.515625 664.546875 22.175781 616.90625 41.652344 C 569.257812 61.132812 538.355469 82.414062 525.464844 92.203125 C 523.234375 93.898438 521.941406 96.503906 521.941406 99.304688 L 521.941406 565.945312 C 521.941406 569.386719 523.90625 572.503906 527.007812 573.992188 Z M 623.65625 58.164062 C 667.75 40.140625 726.917969 23.6875 800.011719 20.269531 L 800.011719 460.15625 C 774.144531 462.128906 732.828125 467.140625 686.28125 479.957031 C 639.234375 492.921875 586.820312 513.902344 539.777344 547.976562 L 539.777344 103.785156 C 553.429688 93.824219 581.738281 75.296875 623.65625 58.164062 Z M 623.65625 58.164062 " fill-opacity="1" fill-rule="nonzero"/><g clip-path="url(#47c4e9ffac)"><path fill="#ffffff" d="M 417.175781 571.078125 C 421.527344 572.085938 425.945312 569.726562 427.527344 565.546875 C 429.109375 561.367188 427.363281 556.671875 423.433594 554.546875 C 370.554688 525.9375 314.292969 511.550781 270.988281 504.203125 C 249.335938 500.53125 230.917969 498.636719 217.777344 497.65625 C 211.207031 497.167969 205.960938 496.90625 202.285156 496.765625 C 200.449219 496.695312 199.003906 496.65625 197.988281 496.636719 C 197.476562 496.625 197.074219 496.617188 196.78125 496.613281 C 196.476562 496.609375 196.324219 496.609375 196.191406 496.609375 L 186.246094 496.609375 L 186.246094 120.707031 C 186.246094 116.078125 182.710938 112.222656 178.097656 111.824219 C 171.117188 111.21875 163.660156 110.980469 156.164062 110.980469 C 143.152344 110.980469 130.035156 111.699219 119.375 112.558594 C 114.734375 112.933594 111.175781 116.792969 111.175781 121.449219 L 111.175781 542.25 C 111.175781 544.800781 112.261719 547.21875 114.164062 548.914062 C 116.070312 550.609375 118.597656 551.40625 121.128906 551.109375 C 150.570312 547.664062 179.632812 546.183594 207.828125 546.183594 C 288.550781 546.179688 362.164062 558.328125 417.171875 571.078125 Z M 168.410156 129.085938 L 168.410156 505.527344 C 168.410156 507.875 169.359375 510.171875 171.019531 511.835938 C 172.679688 513.496094 174.980469 514.445312 177.328125 514.445312 L 196.199219 514.445312 C 196.78125 514.449219 204.546875 514.53125 217.351562 515.511719 C 236.566406 516.980469 267.214844 520.476562 302.4375 528.714844 C 313.300781 531.253906 324.597656 534.246094 336.128906 537.765625 C 296.988281 532.160156 253.585938 528.351562 207.828125 528.347656 C 182.179688 528.347656 155.792969 529.554688 129.007812 532.308594 L 129.007812 129.746094 C 137.484375 129.203125 146.925781 128.820312 156.164062 128.820312 C 160.332031 128.820312 164.4375 128.910156 168.40625 129.085938 Z M 168.410156 129.085938 " fill-opacity="1" fill-rule="nonzero"/></g><g clip-path="url(#67339139a3)"><path fill="#ffffff" d="M 904.613281 112.558594 C 893.949219 111.699219 880.824219 110.980469 867.808594 110.980469 C 860.316406 110.980469 852.867188 111.21875 845.890625 111.820312 C 841.28125 112.222656 837.742188 116.078125 837.742188 120.707031 L 837.742188 496.59375 L 827.808594 496.605469 L 827.820312 496.605469 C 827.683594 496.605469 827.527344 496.605469 827.222656 496.613281 C 822.664062 496.675781 791.539062 497.390625 748.75 504.949219 C 705.96875 512.519531 651.515625 526.894531 600.316406 554.589844 C 596.386719 556.71875 594.636719 561.414062 596.21875 565.59375 C 597.800781 569.769531 602.222656 572.132812 606.578125 571.121094 C 661.585938 558.359375 735.269531 546.179688 816.121094 546.183594 C 844.324219 546.183594 873.398438 547.664062 902.859375 551.105469 C 905.390625 551.402344 907.921875 550.605469 909.824219 548.910156 C 911.730469 547.21875 912.816406 544.796875 912.816406 542.25 L 912.816406 121.445312 C 912.816406 116.792969 909.253906 112.929688 904.613281 112.554688 Z M 687.929688 537.75 C 712.222656 530.355469 735.496094 525.269531 755.839844 521.828125 C 776.882812 518.257812 794.796875 516.410156 807.5 515.457031 C 813.851562 514.980469 818.902344 514.726562 822.382812 514.59375 C 824.125 514.527344 825.476562 514.492188 826.402344 514.46875 C 826.867188 514.457031 827.222656 514.453125 827.464844 514.449219 L 827.75 514.445312 L 827.832031 514.445312 L 846.671875 514.421875 C 851.597656 514.414062 855.582031 510.425781 855.582031 505.503906 L 855.582031 129.082031 C 859.542969 128.90625 863.644531 128.816406 867.808594 128.816406 C 877.050781 128.816406 886.5 129.203125 894.976562 129.746094 L 894.976562 532.308594 C 868.175781 529.554688 841.777344 528.347656 816.121094 528.347656 C 770.394531 528.351562 727.035156 532.15625 687.929688 537.75 Z M 687.929688 537.75 " fill-opacity="1" fill-rule="nonzero"/></g></svg>